
<svg xmlns="http://www.w3.org/2000/svg" version="1.1" xmlns:xlink="http://www.w3.org/1999/xlink" preserveAspectRatio="none" x="0px" y="0px" width="53px" height="80px" viewBox="0 0 53 80">
<defs>
<g id="Duplicate_Items_Folder_acolorthing_copy_0_Layer0_0_FILL">
<path fill="#0000FF" stroke="none" d="
M 146.2 -39.55
L 0 -39.55 0 39.55 146.2 39.55 146.2 -39.55 Z"/>
</g>

<g id="blindField_0_Layer0_0_FILL">
<path fill="#0000FF" stroke="none" d="
M 0 26
L 0 -26 -24.95 -26 -24.95 26 0 26 Z"/>
</g>

<g id="brakeRod_0_Layer0_1_FILL">
<path fill="#FFFFFF" stroke="none" d="
M -4.55 -4.5
L -45.85 -4.5 -45.85 4.5 -4.6 4.5
Q -4.85 2.35 -4.85 0.15 -4.85 -2.25 -4.55 -4.5
M -45.85 -26
L -50.35 -26 -50.35 26 -45.85 26 -45.85 4.5 -45.85 -4.5 -45.85 -26
M 3 -20.15
L 1 -21.25
Q -3.55 -13.55 -4.55 -4.5 -4.85 -2.25 -4.85 0.15 -4.85 2.35 -4.6 4.5 -3.45 14.4 1.25 21.85
L 3.3 20.5
Q -2.45 11.25 -2.45 0.15 -2.45 -10.95 3 -20.15 Z"/>
</g>

<g id="snap_0_Layer0_0_FILL">
<path fill="#00FF00" fill-opacity="0" stroke="none" d="
M 1.75 -1.8
Q 1.05 -2.5 0 -2.5 -1.05 -2.5 -1.8 -1.8 -2.5 -1.05 -2.5 0 -2.5 1.05 -1.8 1.75 -1.05 2.5 0 2.5 1.05 2.5 1.75 1.75 2.5 1.05 2.5 0 2.5 -1.05 1.75 -1.8 Z"/>
</g>

<path id="brakeRod_0_Layer0_1_1_STROKES" stroke="#000000" stroke-width="1" stroke-linejoin="round" stroke-linecap="round" fill="none" d="
M -4.55 -4.5
Q -3.55 -13.55 1 -21.25
L 3 -20.15
Q -2.45 -10.95 -2.45 0.15 -2.45 11.25 3.3 20.5
L 1.25 21.85
Q -3.45 14.4 -4.6 4.5
L -45.85 4.5 -45.85 26 -50.35 26 -50.35 -26 -45.85 -26 -45.85 -4.5 -4.55 -4.5
Q -4.85 -2.25 -4.85 0.15 -4.85 2.35 -4.6 4.5
M -45.85 4.5
L -45.85 -4.5"/>

<path id="brake_0_Layer1_2_1_STROKES" stroke="#000000" stroke-width="1" stroke-linejoin="round" stroke-linecap="round" fill="none" d="
M -41.75 -4.65
L -41.75 -26 -75.45 -26 -75.45 26 -41.75 26 -41.75 4.7"/>

<path id="brakeSpring_0_Layer0_0_1_STROKES" stroke="#000000" stroke-width="1" stroke-linejoin="round" stroke-linecap="round" fill="none" d="
M 24.1 -25.4
L 24.1 25.4 18.05 -25.4 12.05 25.4 6 -25.4 0 25.4 0 -25.4"/>
</defs>

<g id="brakeCylinder" transform="matrix( 0, 1, 1, 0, 26.5,76.1) ">
<g id="rodField" transform="matrix( 0.210662841796875, 0, 0, -0.6573944091796875, -72.7,0) ">
<g transform="matrix( 1, 0, 0, 1, 0,0) ">
<use xlink:href="#Duplicate_Items_Folder_acolorthing_copy_0_Layer0_0_FILL"/>
</g>
</g>

<g id="rod" transform="matrix( 1, 0, 0, 1, 0,0) ">
<g id="blindField" transform="matrix( 1, 0, 0, 1, -50.4,0) ">
<g transform="matrix( 1, 0, 0, 1, 0,0) ">
<use xlink:href="#blindField_0_Layer0_0_FILL"/>
</g>
</g>

<g transform="matrix( 1, 0, 0, 1, 0,0) ">
<use xlink:href="#brakeRod_0_Layer0_1_FILL"/>

<use xlink:href="#brakeRod_0_Layer0_1_1_STROKES"/>
</g>
</g>

<g transform="matrix( 1, 0, 0, 1, 0,0) ">
<use xlink:href="#brake_0_Layer1_2_1_STROKES"/>
</g>

<g id="spring" transform="matrix( 0.995849609375, 0, 0, 1, -75.15,0) ">
<g transform="matrix( 1, 0, 0, 1, 0,0) ">
<use xlink:href="#brakeSpring_0_Layer0_0_1_STROKES"/>
</g>
</g>
</g>

<g id="snap" transform="matrix( 1, 0, 0, 1, 3,3.15) ">
<g transform="matrix( 1, 0, 0, 1, 0,0) ">
<use xlink:href="#snap_0_Layer0_0_FILL"/>
</g>
</g>

<g id="snap_FL" transform="matrix( 1, 0, 0, 1, 3,31.85) ">
<g transform="matrix( 1, 0, 0, 1, 0,0) ">
<use xlink:href="#snap_0_Layer0_0_FILL"/>
</g>
</g>
</svg>
