<svg id="Layer_1" data-name="Layer 1" xmlns="http://www.w3.org/2000/svg" width="1.3in" height="3.5in" viewBox="0 0 95.1 253">
  <g>
    <g id="blindField">
      <g id="Duplicate_Items_Folder_cylinderField_0_Layer0_0_FILL" data-name="Duplicate Items Folder cylinderField 0 Layer0 0 FILL">
        <path d="M3.1,170h92V0H3.1Z" fill="red"/>
      </g>
    </g>
    <g id="rodField">
      <g id="Duplicate_Items_Folder_cylinderField_0_Layer0_0_FILL-2" data-name="Duplicate Items Folder cylinderField 0 Layer0 0 FILL">
        <path d="M3.1,207.5h92V37.5H3.1Z" fill="red"/>
      </g>
    </g>
    <g id="rod">
      <g>
        <g id="rod_0_Layer0_0_FILL" data-name="rod 0 Layer0 0 FILL">
          <path d="M60.5,253V46h-23V253h23m0-207H95V0H3V46H60.5Z" fill="#fff"/>
        </g>
        <path id="rod_0_Layer0_0_1_STROKES" data-name="rod 0 Layer0 0 1 STROKES" d="M60.5,46H95V0H3V46H60.5V253h-23V46" fill="none" stroke="#000" stroke-linecap="round" stroke-linejoin="round" stroke-width="1"/>
      </g>
    </g>
    <path id="cylinder_0_Layer0_3_1_STROKES" data-name="cylinder 0 Layer0 3 1 STROKES" d="M60.7,207H95.1V0H3.1V207H37.3" fill="none" stroke="#000" stroke-linecap="round" stroke-linejoin="round" stroke-width="1"/>
    <g id="blindSnap">
      <g id="snap_0_Layer0_0_FILL" data-name="snap 0 Layer0 0 FILL">
        <path d="M5.3,3.5a2.9,2.9,0,0,0-2.2-.9,2.9,2.9,0,0,0-2.2.9A2.9,2.9,0,0,0,0,5.7,2.9,2.9,0,0,0,.9,7.9a2.9,2.9,0,0,0,2.2.9,2.9,2.9,0,0,0,2.2-.9,2.9,2.9,0,0,0,.9-2.2A2.9,2.9,0,0,0,5.3,3.5Z" fill="lime" fill-opacity="0"/>
      </g>
    </g>
    <g id="rodSnap">
      <g id="snap_0_Layer0_0_FILL-2" data-name="snap 0 Layer0 0 FILL">
        <path d="M5.3,199.9a2.9,2.9,0,0,0-2.2-.9,2.9,2.9,0,0,0-2.2.9,3.1,3.1,0,0,0,0,4.4,2.9,2.9,0,0,0,2.2.9,2.9,2.9,0,0,0,2.2-.9,3.1,3.1,0,0,0,0-4.4Z" fill="lime" fill-opacity="0"/>
      </g>
    </g>
  </g>
</svg>
