<svg id="Layer_1" data-name="Layer 1" xmlns="http://www.w3.org/2000/svg" width="268.8" height="72" viewBox="0 0 268.8 72">
  <g>
    <g>
      <g id="doubleSolenoidValve_0_Layer0_0_FILL" data-name="doubleSolenoidValve 0 Layer0 0 FILL">
        <path d="M186.4,35.8V21.5h-9l-5.3,9.3-5.4-9.3h-8.9V35.8Z" fill="#fff"/>
      </g>
      <path id="doubleSolenoidValve_0_Layer0_0_1_STROKES" data-name="doubleSolenoidValve 0 Layer0 0 1 STROKES" d="M157.8,35.8h28.6V21.5h-9l-5.3,9.3-5.4-9.3h-8.9V39.3m0-17.8V18" fill="none" stroke="#000" stroke-linecap="round" stroke-linejoin="round" stroke-width="0.95"/>
    </g>
    <path id="doubleSolenoidValve_0_Layer0_0_MEMBER_0_1_STROKES" data-name="doubleSolenoidValve 0 Layer0 0 MEMBER 0 1 STROKES" d="M177.4,14.3V0" fill="none" stroke="#000" stroke-linecap="round" stroke-linejoin="round" stroke-width="0.95"/>
    <g>
      <g id="solenoidOn">
        <g id="solenoidOn_0_Layer0_0_FILL" data-name="solenoidOn 0 Layer0 0 FILL">
          <path d="M200.5,71.9V43.3H157.6V71.9Z" fill="red"/>
        </g>
      </g>
      <g id="solenoidOff">
        <g id="solenoidOff_0_Layer0_0_FILL" data-name="solenoidOff 0 Layer0 0 FILL">
          <path d="M200.5,71.9V43.3H157.6V71.9Z" fill="#fefefe"/>
        </g>
      </g>
      <path id="solenoid_0_Layer0_2_1_STROKES" data-name="solenoid 0 Layer0 2 1 STROKES" d="M200.5,43.3H157.6V71.9h42.9Z" fill="none" stroke="#000" stroke-linecap="round" stroke-linejoin="round" stroke-width="0.95"/>
      <path id="solenoid_0_Layer0_2_MEMBER_0_1_STROKES" data-name="solenoid 0 Layer0 2 MEMBER 0 1 STROKES" d="M186.3,71.7,171.8,43.3" fill="none" stroke="#000" stroke-linecap="round" stroke-linejoin="round" stroke-width="0.95"/>
    </g>
    <g>
      <g id="solenoidOn_FL" data-name="solenoidOn FL">
        <g id="solenoidOn_0_Layer0_0_FILL-2" data-name="solenoidOn 0 Layer0 0 FILL-2">
          <path d="M0,71.9V43.3H43V71.9Z" fill="red"/>
        </g>
      </g>
      <g id="solenoidOff_FL" data-name="solenoidOff FL">
        <g id="solenoidOff_0_Layer0_0_FILL-2" data-name="solenoidOff 0 Layer0 0 FILL-2">
          <path d="M0,71.9V43.3H43V71.9Z" fill="#fefefe"/>
        </g>
      </g>
      <path id="solenoid_0_Layer0_2_1_STROKES-2" data-name="solenoid 0 Layer0 2 1 STROKES-2" d="M0,43.3H43V71.9H0Z" fill="none" stroke="#000" stroke-linecap="round" stroke-linejoin="round" stroke-width="0.95"/>
      <path id="solenoid_0_Layer0_2_MEMBER_0_1_STROKES-2" data-name="solenoid 0 Layer0 2 MEMBER 0 1 STROKES-2" d="M14.2,71.7,28.7,43.3" fill="none" stroke="#000" stroke-linecap="round" stroke-linejoin="round" stroke-width="0.95"/>
    </g>
    <g>
      <g id="doubleSolenoidValve_0_Layer0_3_MEMBER_0_FILL" data-name="doubleSolenoidValve 0 Layer0 3 MEMBER 0 FILL">
        <path d="M157.7,72V14.7H100.4V72h57.3M43.1,14.7V72h57.3V14.7Z" fill="#fff"/>
      </g>
      <path id="doubleSolenoidValve_0_Layer0_3_MEMBER_0_1_STROKES" data-name="doubleSolenoidValve 0 Layer0 3 MEMBER 0 1 STROKES" d="M100.4,72H43.1V14.7H157.7V72H100.4V14.7" fill="none" stroke="#000" stroke-linecap="round" stroke-linejoin="round" stroke-width="1.91"/>
    </g>
    <g>
      <g id="doubleSolenoidValve_0_Layer0_3_MEMBER_1_FILL" data-name="doubleSolenoidValve 0 Layer0 3 MEMBER 1 FILL">
        <path d="M76.3,26.5l9.9-10.9L83.1,30.1l-3.5-1.8Z"/>
      </g>
      <path id="doubleSolenoidValve_0_Layer0_3_MEMBER_1_1_STROKES" data-name="doubleSolenoidValve 0 Layer0 3 MEMBER 1 1 STROKES" d="M79.6,28.3,57.3,71.8" fill="none" stroke="#000" stroke-linecap="round" stroke-linejoin="round" stroke-width="0.95"/>
    </g>
    <g>
      <g id="doubleSolenoidValve_0_Layer0_3_MEMBER_2_FILL" data-name="doubleSolenoidValve 0 Layer0 3 MEMBER 2 FILL">
        <path d="M118.6,29.8l-3.8-14.3L111,29.8Z"/>
      </g>
      <path id="doubleSolenoidValve_0_Layer0_3_MEMBER_2_1_STROKES" data-name="doubleSolenoidValve 0 Layer0 3 MEMBER 2 1 STROKES" d="M114.8,29.8V71.5" fill="none" stroke="#000" stroke-linecap="round" stroke-linejoin="round" stroke-width="0.95"/>
    </g>
    <g>
      <g id="doubleSolenoidValve_0_Layer0_3_MEMBER_3_FILL" data-name="doubleSolenoidValve 0 Layer0 3 MEMBER 3 FILL">
        <path d="M76.3,61l9.9,11L83.1,57.5l-3.5,1.8Z"/>
      </g>
      <path id="doubleSolenoidValve_0_Layer0_3_MEMBER_3_1_STROKES" data-name="doubleSolenoidValve 0 Layer0 3 MEMBER 3 1 STROKES" d="M79.6,59.3,57.3,15.8" fill="none" stroke="#000" stroke-linecap="round" stroke-linejoin="round" stroke-width="0.95"/>
    </g>
    <g>
      <g id="doubleSolenoidValve_0_Layer0_3_MEMBER_4_FILL" data-name="doubleSolenoidValve 0 Layer0 3 MEMBER 4 FILL">
        <path d="M139.6,57.2l3.8,14.3,3.8-14.3Z"/>
      </g>
      <path id="doubleSolenoidValve_0_Layer0_3_MEMBER_4_1_STROKES" data-name="doubleSolenoidValve 0 Layer0 3 MEMBER 4 1 STROKES" d="M143.4,57.2V15.5" fill="none" stroke="#000" stroke-linecap="round" stroke-linejoin="round" stroke-width="0.95"/>
    </g>
  </g>
  <g id="accumulatorSnap">
    <g id="snap_0_Layer0_0_FILL" data-name="snap 0 Layer0 0 FILL">
      <path d="M145.5,12.5a3,3,0,0,0-4.1-.1h-.1a3.6,3.6,0,0,0-.9,2.1,3,3,0,0,0,3,3,2.9,2.9,0,0,0,3-3h0A3,3,0,0,0,145.5,12.5Z" fill="lime" fill-opacity="0"/>
    </g>
  </g>
  <g id="portBSnap">
    <g id="snap_0_Layer0_0_FILL-2" data-name="snap 0 Layer0 0 FILL-2">
      <path d="M116.8,69.9a3,3,0,0,0-4.1-.1c0,.1,0,.1-.1.1h0a3.6,3.6,0,0,0-.9,2.1,3,3,0,0,0,3,3,2.9,2.9,0,0,0,3-3h0A3,3,0,0,0,116.8,69.9Z" fill="lime" fill-opacity="0"/>
    </g>
  </g>
  <g id="portASnap">
    <g id="snap_0_Layer0_0_FILL-3" data-name="snap 0 Layer0 0 FILL-3">
      <path d="M145.4,69.9a3,3,0,0,0-4.1-.1c0,.1,0,.1-.1.1h0a3.6,3.6,0,0,0-.9,2.1,3,3,0,0,0,3,3,2.9,2.9,0,0,0,3-3h0A3,3,0,0,0,145.4,69.9Z" fill="lime" fill-opacity="0"/>
    </g>
  </g>
  <g id="portTSnap">
    <g id="snap_0_Layer0_0_FILL-4" data-name="snap 0 Layer0 0 FILL-4">
      <path d="M116.9,12.5a3,3,0,0,0-4.1-.1h-.1a3,3,0,0,0-.9,2.1,2.9,2.9,0,0,0,3,3,3,3,0,0,0,3-3h0A3,3,0,0,0,116.9,12.5Z" fill="lime" fill-opacity="0"/>
    </g>
  </g>
  <g id="portPSnap">
    <g id="snap_0_Layer0_0_FILL-5" data-name="snap 0 Layer0 0 FILL-5">
      <path d="M146.8,2.6a3,3,0,0,0-4.1-.1.1.1,0,0,1-.1.1h0a2.9,2.9,0,0,0-.9,2.1,3,3,0,0,0,3,3,2.9,2.9,0,0,0,3-3h0A2.9,2.9,0,0,0,146.8,2.6Z" fill="lime" fill-opacity="0"/>
    </g>
  </g>
</svg>
