<svg id="Layer_1" data-name="Layer 1" xmlns="http://www.w3.org/2000/svg" width="79.2" height="79.2" viewBox="0 0 79.2 79.2">
  <g>
    <g>
      <g id="schemPressureGauge_0_Layer0_0_FILL" data-name="schemPressureGauge 0 Layer0 0 FILL">
        <path d="M67.6,11.6A37.9,37.9,0,0,0,39.6,0a37.9,37.9,0,0,0-28,11.6A37.9,37.9,0,0,0,0,39.6,37.7,37.7,0,0,0,11.6,67.5a37.8,37.8,0,0,0,28,11.7,37.8,37.8,0,0,0,28-11.7A37.7,37.7,0,0,0,79.2,39.6,37.9,37.9,0,0,0,67.6,11.6Z" fill="#fff"/>
      </g>
      <path id="schemPressureGauge_0_Layer0_0_1_STROKES" data-name="schemPressureGauge 0 Layer0 0 1 STROKES" d="M67.6,11.6a37.9,37.9,0,0,1,11.6,28A37.7,37.7,0,0,1,67.6,67.5a37.8,37.8,0,0,1-28,11.7,37.8,37.8,0,0,1-28-11.7A37.7,37.7,0,0,1,0,39.6a37.9,37.9,0,0,1,11.6-28A37.9,37.9,0,0,1,39.6,0,37.9,37.9,0,0,1,67.6,11.6Z" fill="none" stroke="#000" stroke-linecap="round" stroke-linejoin="round" stroke-width="1.98"/>
    </g>
    <g id="needle">
      <path id="needle_0_Layer0_0_1_STROKES" data-name="needle 0 Layer0 0 1 STROKES" d="M24.3,24,63.8,63.6" fill="none" stroke="#000" stroke-linecap="round" stroke-linejoin="round" stroke-width="0.99"/>
      <g id="needle_0_Layer0_0_MEMBER_0_FILL" data-name="needle 0 Layer0 0 MEMBER 0 FILL">
        <path d="M27.5,21.6,14.2,14l7.7,13.2Z"/>
      </g>
    </g>
  </g>
  <g id="gaugeSnap">
    <g id="snap_0_Layer0_0_FILL" data-name="snap 0 Layer0 0 FILL">
      <path d="M41.8,77.2a3.1,3.1,0,0,0-4.4,0,3,3,0,0,0,0,4.3,3.1,3.1,0,0,0,5.3-2.1A3.1,3.1,0,0,0,41.8,77.2Z" fill="lime" fill-opacity="0"/>
    </g>
  </g>
</svg>
