<svg id="Layer_1" data-name="Layer 1" xmlns="http://www.w3.org/2000/svg" width="243.6" height="66.4" viewBox="0 0 243.6 66.4">
  <g>
    <g>
      <g id="manual_0_Layer0_0_FILL" data-name="manual 0 Layer0 0 FILL">
        <path d="M120,59.4v-15h44.9l-4.3,15Z" fill="#fff"/>
      </g>
      <path id="manual_0_Layer0_0_1_STROKES" data-name="manual 0 Layer0 0 1 STROKES" d="M160.6,59.4H119.9v-15h45Zm0,0-1,3.8m5.3-18.8,9.7-33.7" fill="none" stroke="#000" stroke-linecap="round" stroke-linejoin="round"/>
    </g>
    <g>
      <g id="manual_0_Layer0_0_MEMBER_0_FILL" data-name="manual 0 Layer0 0 MEMBER 0 FILL">
        <path d="M169.2,16a7.2,7.2,0,0,1-2.1-5.3,7.4,7.4,0,0,1,2.1-5.3,7.6,7.6,0,0,1,10.7,0,7.5,7.5,0,0,1,2.2,5.3,7.3,7.3,0,0,1-2.2,5.3,7.6,7.6,0,0,1-10.7,0Z" fill="#fff"/>
      </g>
      <path id="manual_0_Layer0_0_MEMBER_0_1_STROKES" data-name="manual 0 Layer0 0 MEMBER 0 1 STROKES" d="M167.1,10.7a7.2,7.2,0,0,0,2.1,5.3,7.3,7.3,0,0,0,5.4,2.2,7.1,7.1,0,0,0,5.3-2.2,7.3,7.3,0,0,0,2.2-5.3,7.7,7.7,0,0,0-2.2-5.4,7.4,7.4,0,0,0-5.3-2.1,7.6,7.6,0,0,0-5.4,2.1A7.6,7.6,0,0,0,167.1,10.7Z" fill="none" stroke="#000" stroke-linecap="round" stroke-linejoin="round"/>
    </g>
    <g>
      <g id="manual_0_Layer0_1_MEMBER_0_FILL" data-name="manual 0 Layer0 1 MEMBER 0 FILL">
        <path d="M120,63.4V3.4H60v60h60M0,3.4v60H60V3.4Z" fill="#fff"/>
      </g>
      <path id="manual_0_Layer0_1_MEMBER_0_1_STROKES" data-name="manual 0 Layer0 1 MEMBER 0 1 STROKES" d="M60,63.4H0V3.4H120v60H60V3.4" fill="none" stroke="#000" stroke-linecap="round" stroke-linejoin="round" stroke-width="2"/>
    </g>
    <path id="manual_0_Layer0_1_MEMBER_1_1_STROKES" data-name="manual 0 Layer0 1 MEMBER 1 1 STROKES" d="M90,63.4v-15H82.5m7.5,0h7.5" fill="none" stroke="#000" stroke-linecap="round" stroke-linejoin="round"/>
    <g>
      <g id="manual_0_Layer0_1_MEMBER_2_FILL" data-name="manual 0 Layer0 1 MEMBER 2 FILL">
        <path d="M26,47.9l4,15,4-15H26M30,4.1l-4,15h8Z"/>
      </g>
      <path id="manual_0_Layer0_1_MEMBER_2_1_STROKES" data-name="manual 0 Layer0 1 MEMBER 2 1 STROKES" d="M30,47.9V19.1" fill="none" stroke="#000" stroke-linecap="round" stroke-linejoin="round"/>
    </g>
    <path id="manual_0_Layer0_1_MEMBER_3_1_STROKES" data-name="manual 0 Layer0 1 MEMBER 3 1 STROKES" d="M90,3.4v15H82.5m7.5,0h7.5" fill="none" stroke="#000" stroke-linecap="round" stroke-linejoin="round"/>
    <g id="topSnap">
      <g id="snap_0_Layer0_0_FILL" data-name="snap 0 Layer0 0 FILL">
        <path d="M92.2.9a3.1,3.1,0,0,0-4.4,0,2.9,2.9,0,0,0-.9,2.2,2.9,2.9,0,0,0,.9,2.2,3.1,3.1,0,0,0,4.4,0,2.9,2.9,0,0,0,.9-2.2A2.9,2.9,0,0,0,92.2.9Z" fill="lime" fill-opacity="0"/>
      </g>
    </g>
    <g id="bottomSnap">
      <g id="snap_0_Layer0_0_FILL-2" data-name="snap 0 Layer0 0 FILL">
        <path d="M92.2,61.1a3.1,3.1,0,1,0,.9,2.2A2.9,2.9,0,0,0,92.2,61.1Z" fill="lime" fill-opacity="0"/>
      </g>
    </g>
  </g>
</svg>
