
<svg xmlns="http://www.w3.org/2000/svg" version="1.1" xmlns:xlink="http://www.w3.org/1999/xlink" preserveAspectRatio="none" x="0px" y="0px" width="20px" height="30px" viewBox="0 0 20 30">
<defs>
<g id="Layer0_0_FILL">
<path fill="#000000" stroke="none" d="
M 651.8 582.4
Q 654.7 582.4 657.6 583.1 660 583.6 662.15 584.5 663.55 585.1 666.8 587
L 666.8 585
Q 662.85 582.1 658.9 580.75 655.55 579.5 651.8 579.5 647.6 579.55 643.7 581.2 639.75 582.8 636.9 585.15
L 636.9 587.15
Q 644.3 582.45 651.8 582.4
M 666.75 569.2
L 666.75 567.15
Q 663.55 569.05 662.15 569.65 659.95 570.65 657.7 571.2 654.75 571.85 651.85 571.85 644.35 571.9 636.8 567.3
L 636.8 569.35
Q 639.8 571.6 643.75 573.2 647.65 574.85 651.85 574.8 655.6 574.8 658.95 573.55 662.9 572.1 666.75 569.2 Z"/>
</g>

<g id="snap_0_Layer0_0_FILL">
<path fill="#00FF00" stroke="none" d="
M 1.75 -1.8
Q 1.05 -2.5 0 -2.5 -1.05 -2.5 -1.8 -1.8 -2.5 -1.05 -2.5 0 -2.5 1.05 -1.8 1.75 -1.05 2.5 0 2.5 1.05 2.5 1.75 1.75 2.5 1.05 2.5 0 2.5 -1.05 1.75 -1.8 Z"/>
</g>
</defs>

<g transform="matrix( 0, 1, -1, 0, 587.15,-636.8) ">
<use xlink:href="#Layer0_0_FILL"/>
</g>

<g id="snap" transform="matrix( 1, 0, 0, 1, 10,15) ">
<g transform="matrix( 1, 0, 0, 1, 0,0) ">
<use xlink:href="#snap_0_Layer0_0_FILL"/>
</g>
</g>
</svg>
