<svg id="Layer_1" data-name="Layer 1" xmlns="http://www.w3.org/2000/svg" width="54.1" height="45" viewBox="0 0 54.1 45">
  <g>
    <path id="quickCoupler_0_Layer0_0_1_STROKES" data-name="quickCoupler 0 Layer0 0 1 STROKES" d="M0,40.8V4.3M0,22.6H19.3" fill="none" stroke="#000" stroke-linecap="round" stroke-linejoin="round"/>
    <g id="rightCheck">
      <path id="checkValve_0_Layer1_0_MEMBER_0_1_STROKES" data-name="checkValve 0 Layer1 0 MEMBER 0 1 STROKES" d="M19.1,22.5,39.1,45" fill="none" stroke="#000" stroke-linecap="round" stroke-linejoin="round"/>
      <path id="checkValve_0_Layer1_0_MEMBER_1_1_STROKES" data-name="checkValve 0 Layer1 0 MEMBER 1 1 STROKES" d="M39.1,0l-20,22.5" fill="none" stroke="#000" stroke-linecap="round" stroke-linejoin="round"/>
      <g id="ball">
        <g>
          <g id="checkValveBall_0_Layer0_0_FILL" data-name="checkValveBall 0 Layer0 0 FILL">
            <path d="M49.7,33.1a13.8,13.8,0,0,0,4.4-10.5A14.2,14.2,0,0,0,49.7,12a14.6,14.6,0,0,0-20.6-.5c-.2.2-.4.3-.5.5a14.7,14.7,0,0,0-4.5,10.6,14.3,14.3,0,0,0,4.5,10.5,13.8,13.8,0,0,0,10.5,4.4A15,15,0,0,0,49.7,33.1Z" fill="#fff"/>
          </g>
          <path id="checkValveBall_0_Layer0_0_1_STROKES" data-name="checkValveBall 0 Layer0 0 1 STROKES" d="M49.7,33.1a15,15,0,0,1-10.6,4.4,13.8,13.8,0,0,1-10.5-4.4,14.3,14.3,0,0,1-4.5-10.5A14.7,14.7,0,0,1,28.6,12a14.6,14.6,0,0,1,20.6-.5l.5.5a14.2,14.2,0,0,1,4.4,10.6A13.8,13.8,0,0,1,49.7,33.1Z" fill="none" stroke="#000" stroke-linecap="round" stroke-linejoin="round"/>
        </g>
      </g>
    </g>
  </g>
  <g id="outSnap">
    <g id="snap_0_Layer0_0_FILL" data-name="snap 0 Layer0 0 FILL">
      <path d="M56.3,20.3a2.8,2.8,0,0,0-2.2-.9,3.1,3.1,0,0,0-2.2.9,3.1,3.1,0,0,0,0,4.4h0a3.1,3.1,0,0,0,5.3-2.2h0A2.7,2.7,0,0,0,56.3,20.3Z" fill="lime" fill-opacity="0"/>
    </g>
  </g>
</svg>
