
<svg xmlns="http://www.w3.org/2000/svg" version="1.1" xmlns:xlink="http://www.w3.org/1999/xlink" preserveAspectRatio="none" x="0px" y="0px" width="81px" height="31px" viewBox="0 0 81 31">
<defs>
<g id="shuttleEndField_0_Layer0_0_FILL">
<path fill="#FF0000" stroke="none" d="
M 5.9 -15
L -5.95 -15 -5.95 15 5.9 15 5.9 -15 Z"/>
</g>

<g id="shuttleMiddleField_0_Layer0_0_FILL">
<path fill="#0000FF" stroke="none" d="
M 28.8 -15
L -28.8 -15 -28.8 15 28.8 15 28.8 -15 Z"/>
</g>

<g id="shuttleValve_0_Layer0_3_FILL">
<path fill="#FFFFFF" stroke="none" d="
M -40 0
L -40 15 -26.65 15 -40 0
M -26.65 -15
L -40 -15 -40 0 -26.65 -15
M 26.7 15
L 40 15 40 0 26.7 15
M 40 -15
L 26.7 -15 40 0 40 -15 Z"/>
</g>

<g id="shuttleBall_0_Layer0_0_FILL">
<path fill="#FFFFFF" stroke="none" d="
M -0.1 -15
Q -6.2 -15.15 -10.6 -10.6 -15 -6.05 -15 0 -15 6.25 -10.6 10.5 -6.25 14.9 -0.1 15 6.15 14.85 10.5 10.5 15 6 15 0 15 -6.2 10.5 -10.6 6.1 -15.1 -0.1 -15 Z"/>
</g>

<g id="portSnap_0_Layer0_0_FILL">
<path fill="#0AC0BF" fill-opacity="0" stroke="none" d="
M 3.15 -3.15
Q 1.85 -4.45 0 -4.45 -1.85 -4.45 -3.15 -3.15 -4.45 -1.85 -4.45 0 -4.45 1.85 -3.15 3.15 -1.85 4.45 0 4.45 1.85 4.45 3.15 3.15 4.45 1.85 4.45 0 4.45 -1.85 3.15 -3.15 Z"/>
</g>

<path id="shuttleValve_0_Layer0_3_1_STROKES" stroke="#000000" stroke-width="1" stroke-linejoin="round" stroke-linecap="round" fill="none" d="
M 40 0
L 40 -15 26.7 -15 40 0 40 15 26.7 15 -26.65 15 -40 15 -40 0 -40 -15 -26.65 -15 26.7 -15
M 26.7 15
L 40 0
M -26.65 15
L -40 0 -26.65 -15"/>

<path id="shuttleBall_0_Layer0_0_1_STROKES" stroke="#000000" stroke-width="1" stroke-linejoin="round" stroke-linecap="round" fill="none" d="
M -10.6 -10.6
Q -15 -6.05 -15 0 -15 6.25 -10.6 10.5 -6.25 14.9 -0.1 15 6.15 14.85 10.5 10.5 15 6 15 0 15 -6.2 10.5 -10.6 6.1 -15.1 -0.1 -15 -6.2 -15.15 -10.6 -10.6 Z"/>
</defs>

<g id="Shuttle" transform="matrix( 1, 0, 0, 1, 40.5,15.5) ">
<g id="rightField" transform="matrix( 1, -0.000091552734375, 0.000091552734375, 1, 34.2,0.05) ">
<g transform="matrix( 1, 0, 0, 1, 0,0) ">
<use xlink:href="#shuttleEndField_0_Layer0_0_FILL"/>
</g>
</g>

<g id="leftField" transform="matrix( 1, -0.000091552734375, 0.000091552734375, 1, -34.1,0.05) ">
<g transform="matrix( 1, 0, 0, 1, 0,0) ">
<use xlink:href="#shuttleEndField_0_Layer0_0_FILL"/>
</g>
</g>

<g id="centerField" transform="matrix( 1, -0.000091552734375, 0.000091552734375, 1, 0,0.05) ">
<g transform="matrix( 1, 0, 0, 1, 0,0) ">
<use xlink:href="#shuttleMiddleField_0_Layer0_0_FILL"/>
</g>
</g>

<g transform="matrix( 1, 0, 0, 1, 0,0) ">
<use xlink:href="#shuttleValve_0_Layer0_3_FILL"/>

<use xlink:href="#shuttleValve_0_Layer0_3_1_STROKES"/>
</g>

<g id="ball" transform="matrix( 1, 0, 0, 1, 0,0.05) ">
<g transform="matrix( 1, 0, 0, 1, 0,0) ">
<use xlink:href="#shuttleBall_0_Layer0_0_FILL"/>

<use xlink:href="#shuttleBall_0_Layer0_0_1_STROKES"/>
</g>
</g>
</g>

<g id="port1Snap" transform="matrix( 1, 0, 0, 1, 0.45,15.5) ">
<g transform="matrix( 1, 0, 0, 1, 0,0) ">
<use xlink:href="#portSnap_0_Layer0_0_FILL"/>
</g>
</g>

<g id="port3Snap" transform="matrix( 1, 0, 0, 1, 80.6,15.5) ">
<g transform="matrix( 1, 0, 0, 1, 0,0) ">
<use xlink:href="#portSnap_0_Layer0_0_FILL"/>
</g>
</g>

<g id="port2Snap" transform="matrix( 1, 0, 0, 1, 40.85,0.5) ">
<g transform="matrix( 1, 0, 0, 1, 0,0) ">
<use xlink:href="#portSnap_0_Layer0_0_FILL"/>
</g>
</g>

<g id="port4Snap" transform="matrix( 1, 0, 0, 1, 40.85,30.55) ">
<g transform="matrix( 1, 0, 0, 1, 0,0) ">
<use xlink:href="#portSnap_0_Layer0_0_FILL"/>
</g>
</g>
</svg>
